<?xml version="1.0" encoding="UTF-8" standalone="no"?>
<svg
   xmlns:dc="http://purl.org/dc/elements/1.1/"
   xmlns:cc="http://creativecommons.org/ns#"
   xmlns:rdf="http://www.w3.org/1999/02/22-rdf-syntax-ns#"
   xmlns:svg="http://www.w3.org/2000/svg"
   xmlns="http://www.w3.org/2000/svg"
   version="1.1"
   id="svg2"
   xml:space="preserve"
   width="1461.3333"
   height="1040"
   viewBox="0 0 1461.3333 1040"><metadata
     id="metadata8"><rdf:RDF><cc:Work
         rdf:about=""><dc:format>image/svg+xml</dc:format><dc:type
           rdf:resource="http://purl.org/dc/dcmitype/StillImage" /><dc:title></dc:title></cc:Work></rdf:RDF></metadata><defs
     id="defs6"><clipPath
       clipPathUnits="userSpaceOnUse"
       id="clipPath18"><path
         d="M 0,780 H 1096 V 0 H 0 Z"
         id="path16" /></clipPath><clipPath
       clipPathUnits="userSpaceOnUse"
       id="clipPath140"><path
         d="M 0,780 H 1096 V 0 H 0 Z"
         id="path138" /></clipPath><clipPath
       clipPathUnits="userSpaceOnUse"
       id="clipPath5586"><path
         d="M 0,780 H 1096 V 0 H 0 Z"
         id="path5584" /></clipPath><clipPath
       clipPathUnits="userSpaceOnUse"
       id="clipPath5680"><path
         d="M 0,780 H 1096 V 0 H 0 Z"
         id="path5678" /></clipPath><clipPath
       clipPathUnits="userSpaceOnUse"
       id="clipPath7208"><path
         d="M 0,780 H 1096 V 0 H 0 Z"
         id="path7206" /></clipPath><clipPath
       clipPathUnits="userSpaceOnUse"
       id="clipPath10812"><path
         d="M 0,780 H 1096 V 0 H 0 Z"
         id="path10810" /></clipPath></defs><g
     transform="matrix(1.3333333,0,0,-1.3333333,-476.75776,519.61735)"
     id="g12"><g
       clip-path="url(#clipPath18)"
       id="g14"><g
         transform="translate(528.1548,143.8193)"
         id="g20"><path
           id="path22"
           style="fill:#231f20;fill-opacity:1;fill-rule:nonzero;stroke:none"
           d="m 0,0 c -42.026,0 -76.094,34.069 -76.094,76.095 0,42.024 34.068,76.093 76.094,76.093 42.027,0 76.095,-34.069 76.095,-76.093 C 76.095,34.069 42.027,0 0,0 m 0,158.207 c -45.349,0 -82.112,-36.764 -82.112,-82.112 0,-45.35 36.763,-82.114 82.112,-82.114 45.349,0 82.113,36.764 82.113,82.114 0,45.348 -36.764,82.112 -82.113,82.112" /></g><g
         transform="translate(596.2964,219.9141)"
         id="g24"><path
           id="path26"
           style="fill:none;stroke:#231f20;stroke-width:1.528;stroke-linecap:butt;stroke-linejoin:miter;stroke-miterlimit:10;stroke-dasharray:none;stroke-opacity:1"
           d="m 0,0 c 0,-37.633 -30.506,-68.142 -68.142,-68.142 -37.631,0 -68.141,30.509 -68.141,68.142 0,37.632 30.51,68.142 68.141,68.142 C -30.506,68.142 0,37.632 0,0 Z" /></g><g
         transform="translate(585.3345,219.9141)"
         id="g28"><path
           id="path30"
           style="fill:none;stroke:#231f20;stroke-width:1.528;stroke-linecap:butt;stroke-linejoin:miter;stroke-miterlimit:10;stroke-dasharray:none;stroke-opacity:1"
           d="m 0,0 c 0,-31.578 -25.599,-57.18 -57.18,-57.18 -31.578,0 -57.179,25.602 -57.179,57.18 0,31.578 25.601,57.18 57.179,57.18 C -25.599,57.18 0,31.578 0,0 Z" /></g><g
         transform="translate(528.1548,177.1348)"
         id="g32"><path
           id="path34"
           style="fill:#231f20;fill-opacity:1;fill-rule:nonzero;stroke:none"
           d="m 0,0 c -23.625,0 -42.779,19.155 -42.779,42.779 0,23.624 19.154,42.779 42.779,42.779 23.628,0 42.779,-19.155 42.779,-42.779 C 42.779,19.155 23.628,0 0,0 m 0,90.717 c -26.473,0 -47.938,-21.465 -47.938,-47.938 0,-26.473 21.465,-47.937 47.938,-47.937 26.477,0 47.938,21.464 47.938,47.937 0,26.473 -21.461,47.938 -47.938,47.938" /></g><g
         transform="translate(513.978,219.9141)"
         id="g36"><path
           id="path38"
           style="fill:#ffffff;fill-opacity:1;fill-rule:nonzero;stroke:none"
           d="M 0,0 14.177,101.997 28.36,0 Z" /></g><g
         transform="translate(513.978,219.9141)"
         id="g40"><path
           id="path42"
           style="fill:none;stroke:#231f20;stroke-width:1.528;stroke-linecap:round;stroke-linejoin:round;stroke-miterlimit:10;stroke-dasharray:none;stroke-opacity:1"
           d="M 0,0 14.177,101.997 28.36,0 Z" /></g><g
         transform="translate(528.1577,219.9141)"
         id="g44"><path
           id="path46"
           style="fill:#231f20;fill-opacity:1;fill-rule:nonzero;stroke:none"
           d="M 0,0 14.18,0 0,101.986 Z" /></g><g
         transform="translate(528.1577,205.7354)"
         id="g48"><path
           id="path50"
           style="fill:#ffffff;fill-opacity:1;fill-rule:nonzero;stroke:none"
           d="M 0,0 -101.997,14.179 0,28.359 Z" /></g><g
         transform="translate(528.1577,205.7354)"
         id="g52"><path
           id="path54"
           style="fill:none;stroke:#231f20;stroke-width:1.528;stroke-linecap:round;stroke-linejoin:round;stroke-miterlimit:10;stroke-dasharray:none;stroke-opacity:1"
           d="M 0,0 -101.997,14.179 0,28.359 Z" /></g><g
         transform="translate(528.1577,219.915)"
         id="g56"><path
           id="path58"
           style="fill:#231f20;fill-opacity:1;fill-rule:nonzero;stroke:none"
           d="M 0,0 0,14.18 -101.988,0 Z" /></g><g
         transform="translate(542.335,219.915)"
         id="g60"><path
           id="path62"
           style="fill:#ffffff;fill-opacity:1;fill-rule:nonzero;stroke:none"
           d="M 0,0 -14.177,-101.997 -28.36,0 Z" /></g><g
         transform="translate(542.335,219.915)"
         id="g64"><path
           id="path66"
           style="fill:none;stroke:#231f20;stroke-width:1.528;stroke-linecap:round;stroke-linejoin:round;stroke-miterlimit:10;stroke-dasharray:none;stroke-opacity:1"
           d="M 0,0 -14.177,-101.997 -28.36,0 Z" /></g><g
         transform="translate(528.1548,219.915)"
         id="g68"><path
           id="path70"
           style="fill:#231f20;fill-opacity:1;fill-rule:nonzero;stroke:none"
           d="M 0,0 -14.18,0 0,-101.987 Z" /></g><g
         transform="translate(528.1548,234.0938)"
         id="g72"><path
           id="path74"
           style="fill:#ffffff;fill-opacity:1;fill-rule:nonzero;stroke:none"
           d="M 0,0 101.998,-14.179 0,-28.36 Z" /></g><g
         transform="translate(528.1548,234.0938)"
         id="g76"><path
           id="path78"
           style="fill:none;stroke:#231f20;stroke-width:1.528;stroke-linecap:round;stroke-linejoin:round;stroke-miterlimit:10;stroke-dasharray:none;stroke-opacity:1"
           d="M 0,0 101.998,-14.179 0,-28.36 Z" /></g><g
         transform="translate(528.1548,219.9141)"
         id="g80"><path
           id="path82"
           style="fill:#231f20;fill-opacity:1;fill-rule:nonzero;stroke:none"
           d="M 0,0 0,-14.181 101.989,0 Z" /></g><g
         transform="translate(522.062,213.8242)"
         id="g84"><path
           id="path86"
           style="fill:#231f20;fill-opacity:1;fill-rule:nonzero;stroke:none"
           d="M 0,0 -37.722,49.902 12.183,12.181 Z" /></g><g
         transform="translate(534.2446,213.8252)"
         id="g88"><path
           id="path90"
           style="fill:#231f20;fill-opacity:1;fill-rule:nonzero;stroke:none"
           d="M 0,0 -49.904,-37.725 -12.18,12.18 Z" /></g><g
         transform="translate(534.2446,226.0049)"
         id="g92"><path
           id="path94"
           style="fill:#231f20;fill-opacity:1;fill-rule:nonzero;stroke:none"
           d="m 0,0 37.725,-49.903 -49.911,37.72 z" /></g><g
         transform="translate(522.062,226.0039)"
         id="g96"><path
           id="path98"
           style="fill:#231f20;fill-opacity:1;fill-rule:nonzero;stroke:none"
           d="M 0,0 49.905,37.723 12.18,-12.18 Z" /></g><g
         transform="translate(614.2646,306.0225)"
         id="g100"><path
           id="path102"
           style="fill:none;stroke:#231f20;stroke-width:1.528;stroke-linecap:round;stroke-linejoin:round;stroke-miterlimit:10;stroke-dasharray:none;stroke-opacity:1"
           d="M 0,0 -172.217,-172.217" /></g><g
         transform="translate(442.0479,306.0225)"
         id="g104"><path
           id="path106"
           style="fill:none;stroke:#231f20;stroke-width:1.528;stroke-linecap:round;stroke-linejoin:round;stroke-miterlimit:10;stroke-dasharray:none;stroke-opacity:1"
           d="M 0,0 172.217,-172.217" /></g><g
         transform="translate(547.019,219.9141)"
         id="g108"><path
           id="path110"
           style="fill:#231f20;fill-opacity:1;fill-rule:nonzero;stroke:none"
           d="m 0,0 c 0,-10.416 -8.445,-18.862 -18.864,-18.862 -10.419,0 -18.861,8.446 -18.861,18.862 0,10.415 8.442,18.862 18.861,18.862 C -8.445,18.862 0,10.415 0,0" /></g><g
         transform="translate(542.3379,219.9141)"
         id="g112"><path
           id="path114"
           style="fill:#f8f4ef;fill-opacity:1;fill-rule:nonzero;stroke:none"
           d="m 0,0 c 0,-7.831 -6.35,-14.182 -14.183,-14.182 -7.833,0 -14.18,6.351 -14.18,14.182 0,7.83 6.347,14.181 14.18,14.181 C -6.35,14.181 0,7.83 0,0" /></g><g
         transform="translate(537.6274,219.9141)"
         id="g116"><path
           id="path118"
           style="fill:none;stroke:#231f20;stroke-width:1.528;stroke-linecap:butt;stroke-linejoin:miter;stroke-miterlimit:10;stroke-dasharray:none;stroke-opacity:1"
           d="m 0,0 c 0,-5.229 -4.242,-9.471 -9.473,-9.471 -5.23,0 -9.469,4.242 -9.469,9.471 0,5.229 4.239,9.471 9.469,9.471 C -4.242,9.471 0,5.229 0,0 Z" /></g></g></g><g
     transform="translate(-476.75776,-520.38265)"
     id="text132"
     style="font-variant:normal;font-weight:normal;font-stretch:normal;font-size:48.91053009px;font-family:Times;-inkscape-font-specification:Times-Roman;writing-mode:lr-tb;fill:#231f20;fill-opacity:1;fill-rule:nonzero;stroke:none"><path
       id="path15093"
       d="m 685.90212,567.74094 8.78861,0 19.79826,24.28809 0,-18.6758 q 0,-2.98526 -0.6687,-3.7256 -0.88364,-1.00305 -2.79421,-1.00305 l -1.12246,0 0,-0.88364 11.27235,0 0,0.88364 -1.14634,0 q -2.05386,0 -2.91361,1.24187 -0.52541,0.76422 -0.52541,3.48678 l 0,27.29724 -0.85975,0 -21.3506,-26.07925 0,19.94155 q 0,2.98526 0.64482,3.72561 0.90752,1.00304 2.7942,1.00304 l 1.14635,0 0,0.88364 -11.27235,0 0,-0.88364 1.12246,0 q 2.07774,0 2.93749,-1.24187 0.52541,-0.76422 0.52541,-3.48678 l 0,-22.52082 q -1.40904,-1.64786 -2.14939,-2.17327 -0.71646,-0.5254 -2.12551,-0.97916 -0.69258,-0.21494 -2.10162,-0.21494 l 0,-0.88364 z" /><path
       id="path15095"
       d="m 713.03179,900.47264 0,11.2007 -0.88363,0 q -0.42988,-3.22408 -1.55234,-5.13465 -1.09858,-1.91056 -3.15244,-3.03302 -2.05386,-1.12246 -4.25101,-1.12246 -2.48374,0 -4.10772,1.52845 -1.62398,1.50458 -1.62398,3.43902 0,1.48069 1.02693,2.69868 1.48069,1.79116 7.04522,4.77642 4.53759,2.43597 6.18546,3.74949 1.67174,1.28963 2.55538,3.05691 0.90752,1.76727 0.90752,3.70172 0,3.67784 -2.86585,6.35264 -2.84197,2.65091 -7.3318,2.65091 -1.40905,0 -2.65092,-0.21494 -0.74034,-0.11941 -3.08079,-0.85975 -2.31656,-0.76423 -2.93749,-0.76423 -0.59706,0 -0.95529,0.35823 -0.33435,0.35823 -0.50152,1.48069 l -0.88364,0 0,-11.10517 0.88364,0 q 0.62093,3.48678 1.67175,5.23018 1.05081,1.71951 3.2002,2.86585 2.17327,1.14634 4.75253,1.14634 2.98527,0 4.70478,-1.57622 1.74339,-1.57622 1.74339,-3.72561 0,-1.1941 -0.6687,-2.41209 -0.64482,-1.21798 -2.02998,-2.2688 -0.9314,-0.71646 -5.08688,-3.03302 -4.15549,-2.34045 -5.92276,-3.72561 -1.7434,-1.38516 -2.65092,-3.05691 -0.90752,-1.67174 -0.90752,-3.67784 0,-3.48679 2.6748,-5.99441 2.67479,-2.5315 6.8064,-2.5315 2.57926,0 5.469,1.26575 1.33739,0.59705 1.88668,0.59705 0.62094,0 1.00305,-0.35823 0.40599,-0.38211 0.64482,-1.50457 l 0.88363,0 z" /><path
       id="path15097"
       d="m 862.96647,733.45634 0,12.8008 7.11686,0 q 2.77033,0 3.70173,-0.83587 1.24187,-1.09858 1.38516,-3.8689 l 0.88364,0 0,11.27234 -0.88364,0 q -0.33435,-2.36432 -0.6687,-3.03302 -0.42988,-0.83587 -1.40904,-1.31352 -0.97917,-0.47764 -3.00915,-0.47764 l -7.11686,0 0,10.6753 q 0,2.14939 0.19106,2.62703 0.19105,0.45376 0.6687,0.74034 0.47764,0.26271 1.81504,0.26271 l 5.49288,0 q 2.74644,0 3.98831,-0.38212 1.24187,-0.38211 2.38821,-1.50457 1.48069,-1.48069 3.03302,-4.46595 l 0.95529,0 -2.79421,8.11991 -24.95679,0 0,-0.88364 1.14634,0 q 1.14634,0 2.17327,-0.54928 0.76423,-0.38212 1.02693,-1.14635 0.28659,-0.76422 0.28659,-3.12855 l 0,-21.04012 q 0,-3.0808 -0.62094,-3.79726 -0.85975,-0.95528 -2.86585,-0.95528 l -1.14634,0 0,-0.88364 24.95679,0 0.35823,7.09298 -0.9314,0 q -0.50152,-2.55538 -1.12246,-3.51067 -0.59705,-0.95528 -1.79115,-1.4568 -0.95529,-0.35823 -3.36738,-0.35823 l -8.88414,0 z" /><path
       id="path15099"
       d="m 562.85388,731.68906 0,0.88364 q -1.26576,0 -2.05387,0.45376 -0.7881,0.45376 -1.50457,1.69563 -0.47764,0.83587 -1.50457,3.98831 l -9.02743,26.10313 -0.95528,0 -7.37957,-20.70578 -7.3318,20.70578 -0.85976,0 -9.62448,-26.89124 q -1.0747,-3.00915 -1.36128,-3.55843 -0.47765,-0.90752 -1.31352,-1.3374 -0.81199,-0.45376 -2.22103,-0.45376 l 0,-0.88364 11.98881,0 0,0.88364 -0.57317,0 q -1.26575,0 -1.93445,0.57317 -0.6687,0.57317 -0.6687,1.38516 0,0.83587 1.05081,3.84502 l 6.37652,18.17427 5.37347,-15.45171 -0.95528,-2.72256 -0.76423,-2.17327 q -0.50152,-1.19411 -1.12246,-2.10163 -0.31046,-0.45376 -0.76422,-0.76422 -0.59706,-0.42988 -1.19411,-0.62094 -0.45376,-0.14329 -1.43292,-0.14329 l 0,-0.88364 12.60974,0 0,0.88364 -0.85975,0 q -1.3374,0 -1.95834,0.57317 -0.62093,0.57317 -0.62093,1.55233 0,1.21799 1.07469,4.25102 l 6.20935,17.6011 6.16158,-17.83992 q 1.05081,-2.96138 1.05081,-4.10772 0,-0.54929 -0.35823,-1.02693 -0.33435,-0.47765 -0.85976,-0.6687 -0.90752,-0.33435 -2.36432,-0.33435 l 0,-0.88364 9.67225,0 z" /></g></svg>