<?xml version="1.0" encoding="UTF-8" standalone="no"?>
<svg
   xmlns:dc="http://purl.org/dc/elements/1.1/"
   xmlns:cc="http://creativecommons.org/ns#"
   xmlns:rdf="http://www.w3.org/1999/02/22-rdf-syntax-ns#"
   xmlns:svg="http://www.w3.org/2000/svg"
   xmlns="http://www.w3.org/2000/svg"
   version="1.1"
   id="svg2"
   xml:space="preserve"
   width="400"
   height="62"
   viewBox="0 0 400.00001 62"><metadata
     id="metadata8"><rdf:RDF><cc:Work
         rdf:about=""><dc:format>image/svg+xml</dc:format><dc:type
           rdf:resource="http://purl.org/dc/dcmitype/StillImage" /><dc:title></dc:title></cc:Work></rdf:RDF></metadata><defs
     id="defs6"><clipPath
       clipPathUnits="userSpaceOnUse"
       id="clipPath18"><path
         d="M 0,780 1096,780 1096,0 0,0 Z"
         id="path16" /></clipPath></defs><g
     transform="matrix(0.78321381,0,0,-0.78321381,34.802364,56.129375)"
     id="g28"><path
       id="path30"
       style="fill:#1e120d;fill-opacity:1;fill-rule:nonzero;stroke:none"
       d="M 0,0 C -4.612,-1.734 -9.11,4.428 -5.834,10.265 -3.307,14.768 10.157,25.4 14.645,26.276 13.14,18.6 8.64,3.248 0,0 m -30.431,9.669 c -4.066,2.01 -1.003,5.649 0.901,7.374 2.731,2.471 6.182,4.145 9.402,5.454 2.872,1.168 29.166,8.941 32.114,9.393 C 11.073,30.94 -24.61,6.79 -30.431,9.669 m -4.382,39.298 c 7.953,9.784 46.799,-14.561 46.799,-14.561 -4.795,-0.45 -38.846,-2.516 -45.457,4.862 -2.161,2.412 -3.384,7.186 -1.342,9.699 m 32.448,8.739 C 2.599,52.714 5.831,45.947 10.462,40.575 6.811,42.124 3.313,44.178 0.093,46.746 c -3.47,2.768 -7.215,6.342 -9.636,10.424 -3.801,6.408 5.305,2.419 7.178,0.536 M 465.934,31.29 c -0.171,0.948 -23.301,19.728 -32.266,29.417 -4.28,4.625 -6.339,-0.875 -2.066,-5.494 6.276,-6.782 9.552,-14.746 15.827,-21.529 0,0 -404.577,-7.909 -429.24,12.342 -4.691,3.851 -6.91,7.863 -10.46,13.027 -5.615,8.168 -14.443,17.525 -23.468,9.921 -2.478,-2.088 -3.667,-4.49 -3.968,-7.013 -0.101,0.055 -0.198,0.122 -0.3,0.175 -8.526,4.428 -19.451,0.811 -23.357,-9.677 -3.625,-9.731 0.79,-21.332 9.301,-24.543 0.531,-0.2 1.07,-0.366 1.614,-0.516 -6.496,-4.799 -12.441,-14.019 -7.4,-22.979 5.66,-10.061 16.077,-3.707 22.366,1.426 0.767,0.626 1.519,1.273 2.273,1.918 -0.03,-3.184 0.728,-6.423 2.54,-9.5 6.951,-11.803 21.328,-6.038 26.023,3.941 10.537,22.397 23.276,22.651 29.499,23.569 41.432,-0.505 363.256,0.17 404.689,-0.335 L 428.218,0.06 c -4.272,-4.631 -1.583,-9.391 2.652,-4.8 10.077,10.923 35.892,34.323 35.064,36.03" /></g></svg>